<?xml version="1.0" encoding="UTF-8" standalone="no"?>
<!-- Created with Inkscape (http://www.inkscape.org/) -->

<svg
   width="128"
   height="128"
   viewBox="0 0 33.866666 33.866666"
   version="1.1"
   id="svg1"
   sodipodi:docname="cog.svg"
   inkscape:version="1.3.2 (091e20e, 2023-11-25, custom)"
   xmlns:inkscape="http://www.inkscape.org/namespaces/inkscape"
   xmlns:sodipodi="http://sodipodi.sourceforge.net/DTD/sodipodi-0.dtd"
   xmlns="http://www.w3.org/2000/svg"
   xmlns:svg="http://www.w3.org/2000/svg">
  <sodipodi:namedview
     id="namedview1"
     pagecolor="#ffffff"
     bordercolor="#000000"
     borderopacity="0.25"
     inkscape:showpageshadow="2"
     inkscape:pageopacity="0.0"
     inkscape:pagecheckerboard="0"
     inkscape:deskcolor="#d1d1d1"
     inkscape:document-units="mm"
     inkscape:zoom="5.6088103"
     inkscape:cx="63.917298"
     inkscape:cy="60.173189"
     inkscape:window-width="1920"
     inkscape:window-height="1001"
     inkscape:window-x="-9"
     inkscape:window-y="-9"
     inkscape:window-maximized="1"
     inkscape:current-layer="layer2" />
  <defs
     id="defs1">
    <inkscape:path-effect
       effect="bool_op"
       operand-path=""
       id="path-effect10"
       is_visible="true"
       lpeversion="1"
       operation="diff"
       swap-operands="true"
       filltype-this="from-curve"
       filter=""
       filltype-operand="from-curve" />
    <inkscape:path-effect
       effect="bool_op"
       operand-path=""
       id="path-effect9"
       is_visible="true"
       lpeversion="1"
       operation="diff"
       swap-operands="false"
       filltype-this="from-curve"
       filter=""
       filltype-operand="from-curve" />
    <inkscape:path-effect
       effect="bool_op"
       operand-path="#path2"
       id="path-effect8"
       is_visible="true"
       lpeversion="1"
       operation="diff"
       swap-operands="false"
       filltype-this="from-curve"
       filter=""
       filltype-operand="from-curve" />
    <inkscape:path-effect
       effect="bool_op"
       operand-path="#path1"
       id="path-effect2"
       is_visible="true"
       lpeversion="1"
       operation="union"
       swap-operands="false"
       filltype-this="from-curve"
       filter=""
       filltype-operand="from-curve" />
    <filter
       id="selectable_hidder_filter"
       width="1.0074367"
       height="1.0074367"
       x="-0.0037183361"
       y="-0.0037183361"
       style="color-interpolation-filters:sRGB;"
       inkscape:label="LPE boolean visibility">
      <feComposite
         id="boolops_hidder_primitive"
         result="composite1"
         operator="arithmetic"
         in2="SourceGraphic"
         in="BackgroundImage" />
    </filter>
    <inkscape:path-effect
       effect="bool_op"
       operand-path="#g17"
       id="path-effect1"
       is_visible="true"
       lpeversion="1"
       operation="inters"
       swap-operands="false"
       filltype-this="from-curve"
       filter=""
       filltype-operand="from-curve" />
    <inkscape:path-effect
       effect="mirror_symmetry"
       start_point="11.973675,-11.973675"
       end_point="35.921024,11.973675"
       center_point="23.94735,1.7763568e-15"
       id="path-effect17"
       is_visible="true"
       lpeversion="1.2"
       lpesatellites=""
       mode="vertical"
       discard_orig_path="false"
       fuse_paths="false"
       oposite_fuse="false"
       split_items="false"
       split_open="false"
       link_styles="false" />
    <inkscape:path-effect
       effect="mirror_symmetry"
       start_point="11.973675,11.973675"
       end_point="35.921024,-11.973675"
       center_point="23.94735,1.7763568e-15"
       id="path-effect15"
       is_visible="true"
       lpeversion="1.2"
       lpesatellites=""
       mode="horizontal"
       discard_orig_path="false"
       fuse_paths="false"
       oposite_fuse="false"
       split_items="false"
       split_open="false"
       link_styles="false" />
    <inkscape:path-effect
       effect="mirror_symmetry"
       start_point="0,16.933333"
       end_point="33.866667,16.933333"
       center_point="16.933333,16.933333"
       id="path-effect13"
       is_visible="true"
       lpeversion="1.2"
       lpesatellites=""
       mode="horizontal"
       discard_orig_path="false"
       fuse_paths="false"
       oposite_fuse="false"
       split_items="false"
       split_open="false"
       link_styles="false" />
    <inkscape:path-effect
       effect="mirror_symmetry"
       start_point="16.933333,0"
       end_point="16.933333,33.866667"
       center_point="16.933333,16.933333"
       id="path-effect11"
       is_visible="true"
       lpeversion="1.2"
       lpesatellites=""
       mode="vertical"
       discard_orig_path="false"
       fuse_paths="false"
       oposite_fuse="false"
       split_items="false"
       split_open="false"
       link_styles="false" />
    <inkscape:path-effect
       effect="mirror_symmetry"
       start_point="11.973675,-11.973675"
       end_point="35.921024,11.973675"
       center_point="23.94735,1.7763568e-15"
       id="path-effect7"
       is_visible="true"
       lpeversion="1.2"
       lpesatellites=""
       mode="vertical"
       discard_orig_path="false"
       fuse_paths="false"
       oposite_fuse="false"
       split_items="false"
       split_open="false"
       link_styles="false" />
    <inkscape:path-effect
       effect="mirror_symmetry"
       start_point="11.973675,11.973675"
       end_point="35.921024,-11.973675"
       center_point="23.94735,1.7763568e-15"
       id="path-effect6"
       is_visible="true"
       lpeversion="1.2"
       lpesatellites=""
       mode="horizontal"
       discard_orig_path="false"
       fuse_paths="false"
       oposite_fuse="false"
       split_items="false"
       split_open="false"
       link_styles="false" />
    <inkscape:path-effect
       effect="mirror_symmetry"
       start_point="16.933333,0"
       end_point="16.933333,33.866667"
       center_point="16.933333,16.933333"
       id="path-effect5"
       is_visible="true"
       lpeversion="1.2"
       lpesatellites=""
       mode="vertical"
       discard_orig_path="false"
       fuse_paths="false"
       oposite_fuse="false"
       split_items="false"
       split_open="false"
       link_styles="false" />
    <inkscape:path-effect
       effect="tiling"
       id="path-effect4"
       is_visible="true"
       lpeversion="1"
       unit="px"
       seed="1;1"
       lpesatellites=""
       num_rows="3"
       num_cols="3"
       gapx="0"
       gapy="0"
       offset="0"
       offset_type="false"
       scale="0"
       rotate="0"
       mirrorrowsx="false"
       mirrorrowsy="false"
       mirrorcolsx="false"
       mirrorcolsy="false"
       mirrortrans="false"
       shrink_interp="false"
       split_items="false"
       link_styles="false"
       interpolate_scalex="false"
       interpolate_scaley="true"
       interpolate_rotatex="false"
       interpolate_rotatey="true"
       random_scale="false"
       random_rotate="false"
       random_gap_y="false"
       random_gap_x="false"
       transformorigin="" />
    <inkscape:path-effect
       effect="mirror_symmetry"
       start_point="0,16.933333"
       end_point="33.866667,16.933333"
       center_point="16.933333,16.933333"
       id="path-effect3"
       is_visible="true"
       lpeversion="1.2"
       lpesatellites=""
       mode="horizontal"
       discard_orig_path="false"
       fuse_paths="false"
       oposite_fuse="false"
       split_items="false"
       split_open="false"
       link_styles="false" />
  </defs>
  <path
     id="path1"
     d="m 16.933594,0.125 c -1.417667,0 -2.794236,0.1773371 -4.109375,0.5078125 v 7.7089844 h 8.216797 V 0.6328125 C 19.726369,0.30260172 18.350675,0.125 16.933594,0.125 Z M 8.3125,2.5039063 C 5.9293591,3.9306618 3.930662,5.9293593 2.5039063,8.3125 l 4.2617187,4.261719 5.808594,-5.808594 z m 17.240234,0 -4.261718,4.2617187 5.810546,5.808594 L 31.363281,8.3125 C 29.936486,5.9292937 27.935962,3.9306695 25.552734,2.5039063 Z M 0.6328125,12.824219 C 0.30233706,14.139358 0.125,15.515927 0.125,16.933594 c 0,1.417081 0.17760168,2.792775 0.5078125,4.107422 h 7.7089844 v -8.216797 z m 24.8925785,0 v 8.216797 h 7.708984 c 0.330211,-1.314647 0.507812,-2.690341 0.507812,-4.107422 0,-1.417667 -0.177337,-2.794236 -0.507812,-4.109375 z M 6.765625,21.291016 2.5039063,25.552734 c 1.4267634,2.383228 3.4253871,4.383752 5.8085937,5.810547 l 4.261719,-4.261719 z m 20.335937,0 -5.810546,5.810546 4.261718,4.261719 c 2.383294,-1.426802 4.383745,-3.427254 5.810547,-5.810547 z m -14.277343,4.234375 v 7.708984 c 1.315139,0.330475 2.691708,0.507812 4.109375,0.507812 1.417081,0 2.792775,-0.177601 4.107422,-0.507812 v -7.708984 z"
     style="display:none;fill:#b4b4b4;fill-opacity:1;stroke:#000000;stroke-width:0.25;stroke-linecap:round;stroke-linejoin:round;stroke-miterlimit:0;stroke-dasharray:none"
     inkscape:original-d="m 16.933594,0.125 c -1.417667,0 -2.794236,0.1773371 -4.109375,0.5078125 v 7.7089844 h 8.216797 V 0.6328125 C 19.726369,0.30260172 18.350675,0.125 16.933594,0.125 Z M 8.3125,2.5039063 C 5.9293591,3.9306618 3.930662,5.9293593 2.5039063,8.3125 l 4.2617187,4.261719 5.808594,-5.808594 z m 17.240234,0 -4.261718,4.2617187 5.810546,5.808594 L 31.363281,8.3125 C 29.936486,5.9292937 27.935962,3.9306695 25.552734,2.5039063 Z M 0.6328125,12.824219 C 0.30233706,14.139358 0.125,15.515927 0.125,16.933594 c 0,1.417081 0.17760168,2.792775 0.5078125,4.107422 h 7.7089844 v -8.216797 z m 24.8925785,0 v 8.216797 h 7.708984 c 0.330211,-1.314647 0.507812,-2.690341 0.507812,-4.107422 0,-1.417667 -0.177337,-2.794236 -0.507812,-4.109375 z M 6.765625,21.291016 2.5039063,25.552734 c 1.4267634,2.383228 3.4253871,4.383752 5.8085937,5.810547 l 4.261719,-4.261719 z m 20.335937,0 -5.810546,5.810546 4.261718,4.261719 c 2.383294,-1.426802 4.383745,-3.427254 5.810547,-5.810547 z m -14.277343,4.234375 v 7.708984 c 1.315139,0.330475 2.691708,0.507812 4.109375,0.507812 1.417081,0 2.792775,-0.177601 4.107422,-0.507812 v -7.708984 z"
     inkscape:path-effect="#path-effect10" />
  <g
     inkscape:label="Layer 1"
     inkscape:groupmode="layer"
     id="layer1"
     style="display:none">
    <path
       style="display:none;fill:#b4b4b4;fill-opacity:1;stroke:#000000;stroke-width:0.25;stroke-linecap:round;stroke-linejoin:round;stroke-miterlimit:0;stroke-dasharray:none"
       id="rect1"
       width="8.2166662"
       height="8.2166672"
       x="25.525"
       y="12.825"
       ry="0"
       rx="0"
       sodipodi:type="rect"
       d="m 25.525,12.825 h 8.216666 v 8.216667 H 25.525 Z m -17.183333,0 H 0.12500083 v 8.216667 H 8.341667 Z"
       inkscape:path-effect="#path-effect5" />
    <path
       style="display:none;fill:#b4b4b4;fill-opacity:1;stroke:#000000;stroke-width:0.25;stroke-linecap:round;stroke-linejoin:round;stroke-miterlimit:0;stroke-dasharray:none"
       id="rect2"
       width="8.2166662"
       height="8.2166672"
       x="12.825"
       y="0.125"
       ry="0"
       rx="0"
       sodipodi:type="rect"
       d="m 12.825,0.125 h 8.216666 V 8.3416672 H 12.825 Z m 0,33.616667 h 8.216666 V 25.524999 H 12.825 Z"
       inkscape:path-effect="#path-effect3" />
    <path
       style="display:none;fill:#b4b4b4;fill-opacity:1;stroke:#000000;stroke-width:0.25;stroke-linecap:round;stroke-linejoin:round;stroke-miterlimit:0;stroke-dasharray:none"
       id="rect3"
       width="8.2166662"
       height="8.2166672"
       x="19.839094"
       y="-18.488531"
       ry="0"
       rx="0"
       transform="rotate(45)"
       sodipodi:type="rect"
       d="m 19.839094,-18.488531 h 8.216666 v 8.216667 h -8.216666 z m 22.596787,22.5967865 0,-8.2166662 h -8.216667 l 0,8.2166662 z m -36.9770625,-8.216511 0,8.2166662 h 8.2166675 l 0,-8.2166662 z m 22.5967865,22.5967865 -8.216666,0 0,-8.216667 8.216666,0 z"
       inkscape:path-effect="#path-effect6;#path-effect7" />
  </g>
  <g
     inkscape:groupmode="layer"
     id="layer2"
     inkscape:label="Layer 2"
     style="display:inline">
    <path
       id="ellipse1"
       style="display:inline;fill:#b4b4b4;fill-opacity:1;stroke:#000000;stroke-width:0.25;stroke-linecap:round;stroke-linejoin:round;stroke-miterlimit:0;stroke-dasharray:none"
       d="M 16.93385 0.12505697 C 15.516186 0.12505697 14.139159 0.30256156 12.824023 0.6330363 L 12.824023 5.0441366 C 12.345844 5.209414 11.880896 5.4030093 11.430827 5.6223958 L 8.3126709 2.5037231 C 5.9295348 3.9304757 3.9304759 5.929535 2.5037231 8.3126709 L 5.6223958 11.430827 C 5.4030093 11.880896 5.2094139 12.345844 5.0441366 12.824023 L 0.6330363 12.824023 C 0.30256152 14.139159 0.12505697 15.516186 0.12505697 16.93385 C 0.12505697 18.350928 0.30282614 19.726448 0.6330363 21.041093 L 5.0436198 21.041093 C 5.2089001 21.519459 5.4024392 21.984582 5.6218791 22.434806 L 2.5037231 25.552962 C 3.9304836 27.936186 5.9294691 29.936669 8.3126709 31.36346 L 11.43186 28.243754 C 11.881602 28.462868 12.346217 28.655881 12.824023 28.82098 L 12.824023 33.234147 C 14.139159 33.564622 15.516186 33.742126 16.93385 33.742126 C 18.350928 33.742126 19.726448 33.564358 21.041093 33.234147 L 21.041093 28.822013 C 21.519085 28.656912 21.983876 28.463437 22.433773 28.244271 L 25.552962 31.36346 C 27.936252 29.936662 29.936662 27.936251 31.36346 25.552962 L 28.244271 22.433773 C 28.463438 21.983876 28.656912 21.519085 28.822013 21.041093 L 33.234147 21.041093 C 33.564358 19.726448 33.742126 18.350928 33.742126 16.93385 C 33.742126 15.516186 33.564622 14.139159 33.234147 12.824023 L 28.82098 12.824023 C 28.655881 12.346217 28.462868 11.881602 28.243754 11.43186 L 31.36346 8.3126709 C 29.936669 5.9294694 27.936186 3.9304834 25.552962 2.5037231 L 22.434806 5.6218791 C 21.984582 5.4024392 21.519459 5.2089001 21.041093 5.0436198 L 21.041093 0.6330363 C 19.726448 0.30282618 18.350928 0.12505697 16.93385 0.12505697 z M 16.933333 9.0583618 A 7.875 7.875 0 0 1 24.808305 16.933333 A 7.875 7.875 0 0 1 16.933333 24.808305 A 7.875 7.875 0 0 1 9.0583618 16.933333 A 7.875 7.875 0 0 1 16.933333 9.0583618 z " />
  </g>
</svg>
